<svg width="108" height="108" viewBox="0 0 108 108" fill="none" xmlns="http://www.w3.org/2000/svg">
<path d="M108 54C108 68.3217 102.311 82.0568 92.1838 92.1838C82.0568 102.311 68.3217 108 54 108C39.6783 108 25.9432 102.311 15.8162 92.1838C5.68927 82.0568 0 68.3217 0 54C0 39.6783 5.68927 25.9432 15.8162 15.8162C25.9432 5.68927 39.6783 0 54 0C68.3217 0 82.0568 5.68927 92.1838 15.8162C102.311 25.9432 108 39.6783 108 54ZM81.2025 33.5475C80.7203 33.067 80.1462 32.6887 79.5145 32.4352C78.8828 32.1817 78.2065 32.0582 77.5259 32.072C76.8454 32.0859 76.1746 32.2369 75.5538 32.5159C74.9329 32.7949 74.3747 33.1963 73.9125 33.696L50.4698 63.5648L36.342 49.4302C35.3823 48.536 34.113 48.0492 32.8015 48.0723C31.4899 48.0955 30.2386 48.6268 29.3111 49.5543C28.3835 50.4818 27.8522 51.7332 27.8291 53.0447C27.8059 54.3563 28.2928 55.6256 29.187 56.5853L47.0475 74.4525C47.5287 74.9328 48.1016 75.3112 48.7322 75.5653C49.3628 75.8193 50.0381 75.9437 50.7178 75.9311C51.3975 75.9185 52.0677 75.7692 52.6884 75.4919C53.3092 75.2147 53.8677 74.8153 54.3307 74.3175L81.2767 40.635C82.1954 39.6799 82.7029 38.4026 82.6902 37.0775C82.6776 35.7523 82.1459 34.485 81.2093 33.5475H81.2025Z" fill="#67C33C"/>
</svg>
