<svg xmlns="http://www.w3.org/2000/svg" viewBox="0 0 403.55 209.83"><defs><style>.cls-1{fill:#006933;}.cls-2{fill:#f0b92d;}</style></defs><g id="Layer_2" data-name="Layer 2"><g id="Layer_1-2" data-name="Layer 1"><path class="cls-1" d="M403.55,76.63a25.23,25.23,0,0,1-25.23,25.23H303.84a103,103,0,0,0-9.51-25.23Z"/><path class="cls-1" d="M375.13,113A25.25,25.25,0,0,1,349.9,138.2H305.8a105.08,105.08,0,0,0,0-25.23Z"/><path class="cls-1" d="M339.17,149.3a25.27,25.27,0,0,1-25.24,25.24H294.35a103.81,103.81,0,0,0,9.49-25.24Z"/><path class="cls-1" d="M109.24,76.63a103,103,0,0,0-9.51,25.23H25.23A25.25,25.25,0,0,1,0,76.63Z"/><path class="cls-1" d="M97,125.58a103.05,103.05,0,0,0,.76,12.62H53.67A25.25,25.25,0,0,1,28.44,113H97.77A102.89,102.89,0,0,0,97,125.58Z"/><path class="cls-1" d="M109.22,174.54H89.64A25.27,25.27,0,0,1,64.4,149.3H99.73A103.81,103.81,0,0,0,109.22,174.54Z"/><path class="cls-1" d="M177.27,126.79c.1.54.21,1.08.34,1.6a.31.31,0,0,1,0,.13c.14.48.27,1,.42,1.44s.35,1,.54,1.52.4,1,.63,1.49.45,1,.7,1.43.51.93.79,1.38.57.89.87,1.33.61.86.94,1.28.67.83,1,1.21a28.08,28.08,0,0,0,3.44,3.28l1.28.94V114.3L217.34,145l0,0a26.89,26.89,0,0,0,13.25-22.49v-1.39a26.81,26.81,0,0,0-11.44-21.33v29.1l-28.89-30.4c-.47.27-.93.56-1.38.84l-.24.17c-.43.29-.87.59-1.28.92s-.84.66-1.24,1a.7.7,0,0,0-.21.18,22.18,22.18,0,0,0-2.14,2.09,6.09,6.09,0,0,0-.44.51c-.26.29-.5.57-.73.87s-.51.64-.73,1a6.76,6.76,0,0,0-.49.7c-.26.36-.48.72-.71,1.09s-.39.66-.58,1-.45.87-.66,1.3-.33.69-.46,1a2.63,2.63,0,0,0-.15.35c-.12.28-.24.55-.35.84-.16.46-.32.92-.46,1.39a7.71,7.71,0,0,0-.24.82.06.06,0,0,0,0,0c-.09.29-.15.56-.23.84-.13.58-.25,1.17-.36,1.78a26.4,26.4,0,0,0-.33,2.71c0,.61-.05,1.22-.05,1.85A27.62,27.62,0,0,0,177.27,126.79Z"/><path class="cls-2" d="M258.64,126.85h23.25v-9.79H258.64a107,107,0,0,0-3-21.06H288a86.55,86.55,0,0,0-3.33-9c-.13-.26-.23-.52-.36-.79a88.32,88.32,0,0,0-16.53-24.88L252.26,76.81l-2.38,2.37-7,7,0,0A103.79,103.79,0,0,0,236,70.74c-1.52-2.81-3.19-5.6-5-8.29-.57-.84-1.13-1.67-1.64-2.35a104.32,104.32,0,0,0-7.74-9.74A72.87,72.87,0,0,1,243.79,60l.15-.13,10.3-10.27a86.83,86.83,0,0,0-10.3-6.24c-2.22-1.14-4.47-2.18-6.79-3.14q-2.31-.94-4.69-1.76a87.47,87.47,0,0,0-28.75-4.82h0a87.72,87.72,0,0,0-29.61,5.11c-2.33.83-4.63,1.76-6.88,2.79a88.1,88.1,0,0,0,36.49,168.29h0a87.4,87.4,0,0,0,33.57-6.65,88.41,88.41,0,0,0,17.3-9.54l-10.42-10.43a73.23,73.23,0,0,1-22.32,9.87c2-2.28,3.94-4.64,5.75-7.08,1.2-1.54,2.33-3.11,3.43-4.79,1.88-2.84,3.64-5.75,5.22-8.67a107,107,0,0,0,6.46-14.7h.05l.41.42,3.13,3.15,3.5,3.52.33.33,17.36,17.35a88.73,88.73,0,0,0,16.62-24.76c.13-.29.27-.56.38-.84a90.82,90.82,0,0,0,3.37-8.95H255.56A106.2,106.2,0,0,0,258.64,126.85ZM199.87,48.24c1.27-.06,2.55-.1,3.83-.1,1,0,1.92,0,2.86.06A99.32,99.32,0,0,1,222,65.46c.48.69,1,1.39,1.45,2.08,1.63,2.45,3.15,5,4.54,7.56a99.69,99.69,0,0,1,5.14,11.1H173.31A97.63,97.63,0,0,1,199.87,48.24ZM145.73,76.41a73.62,73.62,0,0,1,38.76-25.74A105.92,105.92,0,0,0,163.58,86.2H139.26A75.35,75.35,0,0,1,145.73,76.41ZM130.1,121.74A73.27,73.27,0,0,1,134.75,96h25.93a109,109,0,0,0,.09,52.06H135A73.63,73.63,0,0,1,130.1,121.74Zm15.75,45.49a73.49,73.49,0,0,1-6.28-9.39h24.15a105.93,105.93,0,0,0,20.54,34.9A73.69,73.69,0,0,1,145.85,167.23Zm82.33,1c-1.43,2.64-3,5.31-4.77,7.93-1,1.49-2,2.89-3.11,4.33a97,97,0,0,1-13.54,14.78c-1,0-2,.06-3.06.06-1.37,0-2.71,0-4-.11a97.39,97.39,0,0,1-26.18-37.38H233A94.82,94.82,0,0,1,228.18,168.23Zm8.22-20.69c-.05.17-.1.34-.14.52h-66a99.65,99.65,0,0,1-.1-52.06h66.25l0,.09a99,99,0,0,1,0,51.45Z"/><path class="cls-2" d="M174.07,38.75c-2.33.83-4.63,1.76-6.88,2.79L161.79,21a10.54,10.54,0,0,0,7.12-1.89Z"/><path class="cls-2" d="M168.91,19.14A10.54,10.54,0,0,1,161.79,21a10.54,10.54,0,1,1,7.12-1.89Z"/><path class="cls-2" d="M249.81,21l-5.87,22.34c-2.22-1.14-4.47-2.18-6.79-3.14l5.55-21.08A10.56,10.56,0,0,0,249.81,21Z"/><path class="cls-2" d="M259,13.21a10.52,10.52,0,0,1-9.14,7.8,10.49,10.49,0,0,1-7.12-1.87A10.53,10.53,0,1,1,259,13.21Z"/></g></g></svg>