<svg xmlns="http://www.w3.org/2000/svg" viewBox="0 0 1000 1046.4"><defs><style>.cls-1{fill:#005529;}.cls-2{fill:#008741;}.cls-3{fill:#006933;}.cls-4{fill:#fff;}.cls-5{fill:#efb82c;}</style></defs><g id="Layer_2" data-name="Layer 2"><g id="Layer_1-2" data-name="Layer 1"><path class="cls-1" d="M217.39,85.23l2.77,10.27L459,983.34A460.32,460.32,0,0,0,538.73,1002C794,1037.86,1000.52,843.58,1000,568.07S792.15,40.15,536.89,4.27c-81.56-11.46-158.12.56-224.57,31.22l-.05,0L278.38,53.27Z"/><path class="cls-2" d="M75.62,438.17q0,16.81,1.09,33.48.44,7.32,1.1,14.6a576.51,576.51,0,0,0,27.25,130.66c1.35,4.1,2.77,8.2,4.22,12.27a603.92,603.92,0,0,0,53.05,111.21c2.13,3.52,4.31,7,6.52,10.5a600.19,600.19,0,0,0,74.75,94.88c2.88,3,5.78,5.92,8.73,8.84a558.2,558.2,0,0,0,97.73,77.56c3.76,2.34,7.53,4.62,11.35,6.87A498.73,498.73,0,0,0,459,983.34c10.55,3.46,21.23,6.58,32,9.27,5.17,1.32,10.4,2.54,15.62,3.66,10.61,2.28,21.35,4.18,32.15,5.71,63.52,8.92,124,3.6,179.06-13.69A373.22,373.22,0,0,0,759,972.68,385.34,385.34,0,0,0,895.93,869.52a407.15,407.15,0,0,0,27.25-36c39.18-58.08,65.15-128.32,73.72-206.74q.9-8.25,1.53-16.61,1.61-20.7,1.57-42.12a561,561,0,0,0-9.77-102.88c-.84-4.47-1.75-8.94-2.7-13.39a592.23,592.23,0,0,0-39.94-121.1c-1.72-3.84-3.51-7.63-5.32-11.4a607,607,0,0,0-63.1-103.69q-3.69-4.91-7.51-9.73a583.93,583.93,0,0,0-84.73-87.35q-4.87-4.08-9.83-8a530.16,530.16,0,0,0-110.36-68q-6.42-2.92-13-5.69A469.05,469.05,0,0,0,536.89,4.27Q518.77,1.74,501,.73,491.14.15,481.42.05c-60.81-.72-117.94,11.84-169.1,35.44a379.85,379.85,0,0,0-33.94,17.78A384.06,384.06,0,0,0,220.16,95.5C163.86,145,121,211.43,97.05,289.68q-3,9.68-5.52,19.61A508.57,508.57,0,0,0,75.62,438.17Z"/><ellipse class="cls-3" cx="462.19" cy="543.27" rx="443.89" ry="519.29" transform="translate(-203.42 286.91) rotate(-28.55)"/><path class="cls-3" d="M427.09,41c1.53.06,3.06.16,4.61.29,1.84.14,3.7.27,5.56.43l2.59.23c1.9.17,3.81.35,5.73.56L501,.73Q491.14.15,481.42.05Z"/><path class="cls-3" d="M653.79,36.78,592.28,83.14q6.33,2.89,12.56,6l61.9-46.65Q660.32,39.55,653.79,36.78Z"/><path class="cls-3" d="M712.18,159.41a2,2,0,0,1,.31.27c1.51,1.26,3,2.52,4.51,3.81s3.19,2.75,4.78,4.15l65.15-49.11q-4.87-4.08-9.83-8Z"/><path class="cls-3" d="M804.25,256.68q3.69,4.92,7.3,9.89l67.62-51q-3.69-4.91-7.51-9.73Z"/><path class="cls-3" d="M872.44,371.9c.89,1.92,1.74,3.85,2.57,5.79s1.7,3.85,2.52,5.8l70.06-52.79c-1.72-3.84-3.51-7.63-5.32-11.4Z"/><path class="cls-3" d="M914.84,506.57c.52,2.78,1,5.57,1.49,8.38.31,1.74.6,3.5.87,5.26l73-55c-.84-4.47-1.75-8.94-2.7-13.39Z"/><path class="cls-3" d="M842.09,881.57l.06,0,18.32-13.82,68.89-51.91,9.25-7q7.27-12.57,13.76-25.8l-40.28,30.35-39.67,29.9-10.88,8.21h0c-.21.41-.45.79-.7,1.18-2.46,4.2-5,8.32-7.6,12.4-1.38,2.15-2.77,4.3-4.18,6.41,0,0,0,0,0,.08-1.42,2.09-2.83,4.18-4.26,6.23C843.87,879.06,843,880.32,842.09,881.57Z"/><path class="cls-3" d="M918.89,685.57h0l78-58.77q.9-8.25,1.53-16.61l-77.32,58.28c-.06.42-.1.83-.15,1.25-.22,2-.47,4-.72,5.95-.12.94-.23,1.89-.37,2.84C919.56,680.87,919.23,683.23,918.89,685.57Z"/><path class="cls-4" d="M414,441.74c-1.84.83-3.68,1.71-5.47,2.6a9.05,9.05,0,0,1-.95.51c-1.73.95-3.46,1.92-5.13,3s-3.35,2.18-5,3.4a3.82,3.82,0,0,0-.83.6,79.71,79.71,0,0,0-8.64,7.25,20,20,0,0,0-1.77,1.8,33.5,33.5,0,0,0-3,3.09,46,46,0,0,0-3,3.51,23.93,23.93,0,0,0-2,2.56c-1.05,1.3-2,2.63-2.92,4s-1.61,2.44-2.42,3.66c-.93,1.62-1.88,3.25-2.76,4.88-.68,1.3-1.4,2.59-2,3.91q-.35.63-.63,1.29c-.51,1.09-1,2.1-1.47,3.19-.7,1.78-1.44,3.57-2,5.36-.41,1-.76,2.1-1.07,3.18l-.05.17c-.4,1.1-.68,2.16-1,3.26-.62,2.28-1.17,4.57-1.68,7a108.05,108.05,0,0,0-1.75,10.78c-.27,2.45-.43,4.91-.53,7.46a119.38,119.38,0,0,0,1,20.48c.31,2.24.63,4.47,1.07,6.66a1.77,1.77,0,0,1,.09.56c.44,2,.89,4,1.38,6.05s1.17,4.3,1.84,6.47,1.39,4.27,2.18,6.33,1.59,4.18,2.5,6.22,1.81,4,2.87,6,2.06,3.94,3.14,5.86,2.24,3.86,3.44,5.71,2.48,3.7,3.75,5.47a132.77,132.77,0,0,0,12.78,15.18c1.58,1.53,3.21,3,4.82,4.52L403.6,504.5,511.22,644.86l0,.07c31.82-14.45,52.65-45.95,55.1-83.3l.23-5.62c.65-34.54-14.51-68.94-40.82-92.61L521,580.92,414,441.74"/><path class="cls-5" d="M237.8,695.27A344.45,344.45,0,0,1,215,653.81l93.62,13.71a493,493,0,0,0,73.89,152.56c-58.25-25.49-109-69.24-144.68-124.82h0M457.45,841.61q-7.9-1.15-15.68-2.76A453.91,453.91,0,0,1,346.42,673l230.69,33.78a356.05,356.05,0,0,1-20.27,39.23v0c-6,9.88-12.67,19.72-19.83,29.31-4.14,5.44-8.15,10.53-12.73,15.72a333,333,0,0,1-54.93,52c-4-.41-7.91-.89-11.9-1.47m-122-209.94c-15.16-71.44-12.33-144,8.22-210.3L600.59,459c0,.11,0,.24.09.37v0a428.84,428.84,0,0,1,8.93,105.9,394.86,394.86,0,0,1-17.46,101.87l-.66,2-256-37.5m-136.72-20c-22-71.28-19.24-146.06,7.8-210.37L307.1,416c-19,66.72-21.84,138.88-8.26,210.31l-100.1-14.66M225.68,364.3a259.41,259.41,0,0,1,26.69-35.89,249.8,249.8,0,0,1,154.59-82c-37.52,36.6-67.07,81.34-87,131.65l-94.3-13.81m132.05,19.33C381.83,328.44,419,281.13,467,245.38c4.92.46,9.85,1,14.83,1.76q5.6.81,11.1,1.85a461,461,0,0,1,56.95,78.48h0c1.78,3,3.56,6.19,5.24,9.22,6,10.84,11.4,21.94,16.38,33.1a451.07,451.07,0,0,1,18,47.79L357.73,383.63m126.91-195-.37-.06h-.1c-94.32-13.82-181.24,13.51-245.74,68.78s-106.33,138.76-110.36,237,30.57,192.79,89.69,266.28,142.87,125.7,237.18,139.52h.1c70.68,10.35,140.55-2.4,200-36.51l-38.7-48a251.26,251.26,0,0,1-88.2,27.13c8.18-8,16-16.45,23.48-25.29,4.91-5.55,9.53-11.21,14.09-17.41,7.78-10.41,15.07-21.15,21.65-32a391.69,391.69,0,0,0,27.51-55.66l.21,0,1.48,1.88L706.84,826.4a310.42,310.42,0,0,0,68.57-90.53c.54-1.08,1.12-2.11,1.62-3.18a327.94,327.94,0,0,0,14.52-34.24L666.4,680.12a429.18,429.18,0,0,0,15.44-83.89L772,609.43l1.62-39.54-90.12-13.2a468.17,468.17,0,0,0-8.35-86.81l125.47,18.37A381.22,381.22,0,0,0,789.14,450c-.42-1.13-.79-2.25-1.24-3.39a411,411,0,0,0-60-109.88L627.49,423l-.11.06a475,475,0,0,0-24-66.34c-5.4-12.22-11.41-24.44-18-36.35-2.06-3.66-4.12-7.34-6-10.39a506.22,506.22,0,0,0-28.36-43.76,316.84,316.84,0,0,1,84.29,51.57l.55-.48,41.68-35.62C622,231.4,554.64,198.89,484.64,188.64"/></g></g></svg>