<svg width="33" height="27" viewBox="0 0 33 27" fill="none" xmlns="http://www.w3.org/2000/svg">
<path d="M33 3.28017C31.7857 3.81861 30.4809 4.18252 29.1114 4.34623C30.5094 3.50834 31.5828 2.1815 32.0882 0.600598C30.7593 1.38923 29.3053 1.94487 27.7891 2.24351C26.554 0.927762 24.7946 0.105469 22.8472 0.105469C19.1082 0.105469 16.0767 3.13683 16.0767 6.87563C16.0767 7.40633 16.1366 7.92299 16.252 8.41863C10.6252 8.1362 5.63655 5.4409 2.29724 1.34477C1.71458 2.3447 1.38071 3.50782 1.38071 4.74841C1.38071 7.09734 2.57606 9.16951 4.39261 10.3837C3.31747 10.35 2.26598 10.0596 1.32593 9.53677C1.32554 9.56513 1.32554 9.59348 1.32554 9.62197C1.32554 12.9023 3.65926 15.6387 6.75636 16.2606C5.75939 16.5318 4.71362 16.5715 3.69896 16.3767C4.56045 19.0664 7.06084 21.0237 10.0234 21.0785C7.70627 22.8943 4.78693 23.9767 1.61507 23.9767C1.0685 23.9767 0.529676 23.9446 0 23.8821C2.99617 25.8031 6.55488 26.9239 10.3782 26.9239C22.8315 26.9239 29.6412 16.6074 29.6412 7.66079C29.6412 7.36714 29.6348 7.07517 29.6216 6.78488C30.9471 5.82669 32.0911 4.63989 33 3.28017Z" fill="#55ACEE"/>
</svg>
