<svg xmlns="http://www.w3.org/2000/svg" viewBox="0 0 799.84 129.98"><defs><style>.cls-1{fill:#006933;}.cls-2{fill:#f0b92d;}</style></defs><g id="Layer_2" data-name="Layer 2"><g id="Layer_1-2" data-name="Layer 1"><path class="cls-1" d="M47.44,1.41a30.53,30.53,0,0,1,8,3.41,55.35,55.35,0,0,1,5.54,4,22.79,22.79,0,0,1,3.46,3.39l1.1,1.43L56.22,23l-.79-1.08a21.55,21.55,0,0,0-2.24-2.36,22.83,22.83,0,0,0-3.79-2.93A24.42,24.42,0,0,0,44,14.25a22,22,0,0,0-6.82-1.08A22,22,0,0,0,14.7,35.65,22,22,0,0,0,37.18,58.13a24.4,24.4,0,0,0,7.13-1A23.11,23.11,0,0,0,50,54.67a38.35,38.35,0,0,0,4-2.84,15,15,0,0,0,2.48-2.48l.76-1L66,57.65a16,16,0,0,1-1.17,1.51,39.49,39.49,0,0,1-3.48,3.29,37.14,37.14,0,0,1-5.77,4.15,37.94,37.94,0,0,1-8.07,3.27,36,36,0,0,1-10.33,1.48q-15.66,0-26.42-10.48A33.94,33.94,0,0,1,0,35.65a33.88,33.88,0,0,1,10.76-25.2Q21.53,0,37.18,0A36.75,36.75,0,0,1,47.44,1.41Z"/><path class="cls-1" d="M80.81,29a23.82,23.82,0,0,1,33.91,0,23.83,23.83,0,0,1,7,17.37,23.73,23.73,0,0,1-7,17.35,23.89,23.89,0,0,1-33.91,0,23.71,23.71,0,0,1-7-17.35A23.81,23.81,0,0,1,80.81,29Zm29,4.54a16.55,16.55,0,0,0-24.15,0,17.77,17.77,0,0,0-5,12.81,17.87,17.87,0,0,0,5,12.81,16.5,16.5,0,0,0,24.15,0,17.78,17.78,0,0,0,5-12.84A17.77,17.77,0,0,0,109.83,33.58Z"/><path class="cls-1" d="M135.16,4.18a4.4,4.4,0,0,1,7.52,3.12,4.39,4.39,0,1,1-8.78,0A4.24,4.24,0,0,1,135.16,4.18ZM134.9,23h6.82V69.87H134.9Z"/><path class="cls-1" d="M165.19,29.78q.18-.29.57-.81a18.62,18.62,0,0,1,1.81-1.91,20,20,0,0,1,3-2.41,18.27,18.27,0,0,1,4.25-1.86,18,18,0,0,1,5.46-.84q8.5,0,13.8,5.49T199.4,42V69.87h-6.87V42q0-6.16-3.55-9.9a12,12,0,0,0-9.14-3.75,13.86,13.86,0,0,0-10.45,4.39A15.58,15.58,0,0,0,165.19,44V69.87h-6.83V23h6.83Z"/><path class="cls-1" d="M278.52,1.43V69.87H265.83l-33.7-43.48V69.87h-14.7V1.43h12.75L263.87,45V1.43Z"/><path class="cls-1" d="M299,48.87a16.08,16.08,0,0,0,5.22,11,16,16,0,0,0,11.38,4.63,17.56,17.56,0,0,0,8.17-2,16.79,16.79,0,0,0,5.34-3.91l1.67-1.91,4.39,4.39-.83,1.07A29.29,29.29,0,0,1,328,67.41a26.79,26.79,0,0,1-5.49,2.34,22.71,22.71,0,0,1-23.41-6.06,24,24,0,0,1-6.92-17.3,24,24,0,0,1,6.85-17.3A21.63,21.63,0,0,1,315.17,22a21.39,21.39,0,0,1,16,6.66q6.45,6.66,6.45,16.82L337.17,49Zm5.39-16.18A17,17,0,0,0,299,43h31.78a16.79,16.79,0,0,0-5.13-10.5,14.71,14.71,0,0,0-10.52-4.15A15.11,15.11,0,0,0,304.43,32.69Z"/><path class="cls-1" d="M381.64,23l11.69,36.17L405.55,23h7.35L396.77,69.87h-6.35l-11.74-35.7L367,69.87h-6.39L344.46,23h7.35L364,59.13,375.77,23Z"/><path class="cls-1" d="M446.63,33.22a10.63,10.63,0,0,0-1.12-1.36,14,14,0,0,0-3.41-2.15,12.43,12.43,0,0,0-5.73-1.36,9.5,9.5,0,0,0-6.35,2,6.11,6.11,0,0,0-2.43,4.77,5.22,5.22,0,0,0,2.62,4.54,22.48,22.48,0,0,0,6.35,2.74q3.72,1,7.44,2.34a15,15,0,0,1,6.35,4.3A11.07,11.07,0,0,1,453,56.7a12.85,12.85,0,0,1-4.63,10.09q-4.64,4-12.46,4a22.25,22.25,0,0,1-6.27-.86,19.57,19.57,0,0,1-4.85-2.06,25.71,25.71,0,0,1-3.32-2.41,15.91,15.91,0,0,1-2.07-2.07l-.62-.91,4.91-4.87.53.74A16.68,16.68,0,0,0,425.7,60a19.35,19.35,0,0,0,2.51,2.11,13.89,13.89,0,0,0,3.43,1.64,13,13,0,0,0,4.25.72q5,0,7.61-2.2a6.91,6.91,0,0,0,2.65-5.58A5.55,5.55,0,0,0,443.5,52,21.57,21.57,0,0,0,437.16,49c-2.47-.72-4.94-1.51-7.42-2.39a15.71,15.71,0,0,1-6.38-4.15,10.34,10.34,0,0,1-2.64-7.33,12,12,0,0,1,4.46-9.25,16.18,16.18,0,0,1,11.19-4,22,22,0,0,1,5.32.65A17.53,17.53,0,0,1,446,24.17a27,27,0,0,1,3,1.91,17.87,17.87,0,0,1,1.89,1.55l.72.72Z"/><path class="cls-1" d="M519,56.7V69.87H467.61V1.43H518V14.65H482.31v13.7h27.83V41.52H482.31V56.7Z"/><path class="cls-1" d="M534.09,69.87h-8.36l17.61-24.44L527.21,23h8.31L547.74,40,560,23h8.31L552.12,45.43l17.62,24.44h-8.31l-13.69-19Z"/><path class="cls-1" d="M584.42,7.3h6.35V23H601V29.3H590.77V57.17q0,7.36,6.35,7.31a13.19,13.19,0,0,0,3.12-.38c1-.26,1.82-.48,2.37-.67l.85-.39v6.35a13.88,13.88,0,0,1-6.63,1.43q-6.06,0-9.47-3.55t-3.42-10.1V29.3h-8.82V23h5.39c2.61,0,3.91-1.63,3.91-4.87Z"/><path class="cls-1" d="M640.62,28.83h-3A14.28,14.28,0,0,0,627.31,33,14.62,14.62,0,0,0,623,44V69.87h-6.82V23H623V29.3c.13-.19.32-.45.58-.78a15.19,15.19,0,0,1,1.81-1.77,20.53,20.53,0,0,1,3.08-2.24,19.31,19.31,0,0,1,4.39-1.77,21.11,21.11,0,0,1,5.8-.79h2Z"/><path class="cls-1" d="M679.22,40a11.37,11.37,0,0,0-3.29-8.45,11.56,11.56,0,0,0-8.45-3.24,15,15,0,0,0-7,1.69,15.5,15.5,0,0,0-4.75,3.46l-1.48,1.67-4.39-4.39c.19-.25.45-.58.78-1a28.34,28.34,0,0,1,2.2-2.09,26.9,26.9,0,0,1,3.56-2.7,19.83,19.83,0,0,1,4.89-2.13,21,21,0,0,1,6.18-.93,18.16,18.16,0,0,1,13.29,5.21A17.38,17.38,0,0,1,686,40V69.87h-6.82V63.52c-.13.19-.33.46-.6.79a20.75,20.75,0,0,1-1.81,1.77,20.1,20.1,0,0,1-3,2.24,18.26,18.26,0,0,1-4.27,1.74,19.64,19.64,0,0,1-5.47.76,17.4,17.4,0,0,1-11.81-4.15q-4.8-4.16-4.8-9.5A13,13,0,0,1,651,47.7q3.54-3.6,10.17-4.7ZM675,60.13a15.4,15.4,0,0,0,4.27-11.26v-3l-16.13,3q-8.79,1.66-8.83,8.3a6.42,6.42,0,0,0,2.6,5.23A11.24,11.24,0,0,0,664,64.48,14.65,14.65,0,0,0,675,60.13Z"/><path class="cls-1" d="M751,1.43V14.65H731.46V69.87H716.81V14.65H697.25V1.43Z"/><path class="cls-1" d="M768.1,69.87,750,22h13.69l11.22,31.79L786.19,22h13.65l-18,47.92Z"/><path class="cls-1" d="M17.09,99.33v3.27H10.57v21.21h-4V102.6H0V99.33Z"/><path class="cls-1" d="M36,105a6.8,6.8,0,0,1,2.75,2.82,9.42,9.42,0,0,1,1,4.51v11.45h-4V113a5.63,5.63,0,0,0-1.3-4,4.64,4.64,0,0,0-3.56-1.39A4.68,4.68,0,0,0,27.36,109,5.6,5.6,0,0,0,26,113v10.85H22V97.74h4v8.91a6.9,6.9,0,0,1,2.59-1.9,8.79,8.79,0,0,1,3.44-.67A8.17,8.17,0,0,1,36,105Z"/><path class="cls-1" d="M63.41,115.6H48.58a5.36,5.36,0,0,0,5.53,5.15A4.7,4.7,0,0,0,58.69,118H63a8.75,8.75,0,0,1-3.19,4.39,9.36,9.36,0,0,1-5.73,1.71,10,10,0,0,1-5-1.25,8.88,8.88,0,0,1-3.45-3.53,10.66,10.66,0,0,1-1.26-5.26,11,11,0,0,1,1.22-5.27,8.54,8.54,0,0,1,3.42-3.5,10.05,10.05,0,0,1,5-1.24,9.88,9.88,0,0,1,4.9,1.2,8.52,8.52,0,0,1,3.35,3.36,10.25,10.25,0,0,1,1.19,5A11.77,11.77,0,0,1,63.41,115.6Zm-4-3.24a4.58,4.58,0,0,0-1.58-3.56,5.7,5.7,0,0,0-3.84-1.33,5.1,5.1,0,0,0-3.56,1.32,5.46,5.46,0,0,0-1.76,3.57Z"/><path class="cls-1" d="M80.11,118.35q3.39-2.92,5.34-4.81a21.38,21.38,0,0,0,3.26-3.93,7.51,7.51,0,0,0,1.3-4.08,5,5,0,0,0-1-3.31,3.89,3.89,0,0,0-3.16-1.2,4,4,0,0,0-3.22,1.32,5.53,5.53,0,0,0-1.22,3.54H77.54a8.63,8.63,0,0,1,14.29-6.17A7.53,7.53,0,0,1,94,105.35a10.08,10.08,0,0,1-1.28,4.88,19.58,19.58,0,0,1-3.07,4.19c-1.19,1.24-2.69,2.66-4.53,4.28l-1.58,1.41H94.7v3.35H77.57v-2.93Z"/><path class="cls-1" d="M98.61,118.46v-3l11.83-17h4.87V115h3.27v3.49h-3.27v5.35h-4v-5.35Zm12.93-15.93L103.22,115h8.32Z"/><path class="cls-1" d="M136.34,90.55,126.76,130h-4l9.55-39.43Z"/><path class="cls-1" d="M158,101.23l-9.8,22.58h-4.05l9.9-22.16h-13V98.24h17Z"/><path class="cls-1" d="M177,97.74v26.07h-4V97.74Z"/><path class="cls-1" d="M183.33,101.09a2.58,2.58,0,0,1,1.84-4.41,2.45,2.45,0,0,1,1.79.74,2.65,2.65,0,0,1,0,3.67,2.45,2.45,0,0,1-1.79.74A2.53,2.53,0,0,1,183.33,101.09Zm3.81,3.31v19.41h-4V104.4Z"/><path class="cls-1" d="M200.81,120.22l5.49-15.82h4.27l-7.4,19.41h-4.79L191,104.4h4.3Z"/><path class="cls-1" d="M232.13,115.6H217.29a5.36,5.36,0,0,0,5.54,5.15A4.69,4.69,0,0,0,227.4,118h4.34a8.75,8.75,0,0,1-3.19,4.39,9.35,9.35,0,0,1-5.72,1.71,10,10,0,0,1-5-1.25,8.88,8.88,0,0,1-3.45-3.53,10.66,10.66,0,0,1-1.25-5.26,11,11,0,0,1,1.21-5.27,8.54,8.54,0,0,1,3.42-3.5,10.09,10.09,0,0,1,5.06-1.24,9.84,9.84,0,0,1,4.89,1.2,8.52,8.52,0,0,1,3.35,3.36,10.15,10.15,0,0,1,1.2,5A12.93,12.93,0,0,1,232.13,115.6Zm-4.06-3.24a4.58,4.58,0,0,0-1.58-3.56,5.68,5.68,0,0,0-3.84-1.33,5.12,5.12,0,0,0-3.56,1.32,5.5,5.5,0,0,0-1.76,3.57Z"/><path class="cls-2" d="M263.58,113.31a6.11,6.11,0,0,1,1.38,3.91,6,6,0,0,1-1,3.37,6.61,6.61,0,0,1-2.8,2.36,10,10,0,0,1-4.26.86h-9.8V99.33h9.34a10.09,10.09,0,0,1,4.3.84,6.39,6.39,0,0,1,2.71,2.27,5.81,5.81,0,0,1,.91,3.19,5.49,5.49,0,0,1-1.12,3.53,6.48,6.48,0,0,1-3,2.07A5.43,5.43,0,0,1,263.58,113.31Zm-12.43-3.7h5a4.83,4.83,0,0,0,3.08-.89,3.15,3.15,0,0,0,1.11-2.59,3.19,3.19,0,0,0-1.11-2.59,4.61,4.61,0,0,0-3.08-.94h-5Zm8.63,9.94a3.44,3.44,0,0,0,1.16-2.75,3.55,3.55,0,0,0-1.23-2.85,4.85,4.85,0,0,0-3.28-1.06h-5.28v7.64h5.42A4.79,4.79,0,0,0,259.78,119.55Z"/><path class="cls-2" d="M274.22,97.74v26.07h-4V97.74Z"/><path class="cls-2" d="M283.84,122.88a9,9,0,0,1-3.49-3.53,10.66,10.66,0,0,1-1.26-5.26,10.43,10.43,0,0,1,1.3-5.25,8.93,8.93,0,0,1,3.56-3.52,10.84,10.84,0,0,1,10.07,0,8.93,8.93,0,0,1,3.56,3.52,10.43,10.43,0,0,1,1.3,5.25,10.25,10.25,0,0,1-1.33,5.25,9.4,9.4,0,0,1-3.65,3.54,10.57,10.57,0,0,1-5.09,1.25A10,10,0,0,1,283.84,122.88Zm7.87-3a5.62,5.62,0,0,0,2.21-2.22,7.17,7.17,0,0,0,.84-3.59,7.32,7.32,0,0,0-.81-3.58,5.43,5.43,0,0,0-2.15-2.2,5.89,5.89,0,0,0-2.89-.74,5.82,5.82,0,0,0-2.87.74,5.24,5.24,0,0,0-2.09,2.2,7.55,7.55,0,0,0-.78,3.58,6.84,6.84,0,0,0,1.6,4.84,5.31,5.31,0,0,0,4,1.71A6,6,0,0,0,291.71,119.9Z"/><path class="cls-2" d="M303.62,108.82a8.61,8.61,0,0,1,3.37-3.5,10.71,10.71,0,0,1,10.76.44,8.2,8.2,0,0,1,3.12,4.77h-4.34a4.61,4.61,0,0,0-1.69-2.26,5.05,5.05,0,0,0-2.92-.8,4.87,4.87,0,0,0-3.93,1.74,8.9,8.9,0,0,0,0,9.77,4.83,4.83,0,0,0,3.93,1.77,4.46,4.46,0,0,0,4.61-3.07h4.34a8.76,8.76,0,0,1-3.17,4.71,9.38,9.38,0,0,1-5.78,1.74,9.63,9.63,0,0,1-4.93-1.25,8.75,8.75,0,0,1-3.37-3.53,12.06,12.06,0,0,1,0-10.53Z"/><path class="cls-2" d="M333.44,114.12l8.95,9.69H337l-7.19-8.35v8.35h-4V97.74h4v15.15l7.05-8.49h5.56Z"/><path class="cls-2" d="M346,108.82a8.65,8.65,0,0,1,3.36-3.5,10.71,10.71,0,0,1,10.76.44,8.2,8.2,0,0,1,3.12,4.77H359a4.67,4.67,0,0,0-1.69-2.26,5.08,5.08,0,0,0-2.93-.8,4.85,4.85,0,0,0-3.92,1.74,8.85,8.85,0,0,0,0,9.77,4.82,4.82,0,0,0,3.92,1.77,4.47,4.47,0,0,0,4.62-3.07h4.33a8.71,8.71,0,0,1-3.17,4.71,9.36,9.36,0,0,1-5.78,1.74,9.66,9.66,0,0,1-4.93-1.25,8.8,8.8,0,0,1-3.36-3.53,12,12,0,0,1,0-10.53Z"/><path class="cls-2" d="M382.18,105a6.8,6.8,0,0,1,2.75,2.82,9.42,9.42,0,0,1,1,4.51v11.45h-4V113a5.63,5.63,0,0,0-1.3-4,4.63,4.63,0,0,0-3.56-1.39,4.68,4.68,0,0,0-3.57,1.39,5.59,5.59,0,0,0-1.32,4v10.85h-4V97.74h4v8.91a6.74,6.74,0,0,1,2.59-1.9,8.71,8.71,0,0,1,3.43-.67A8.17,8.17,0,0,1,382.18,105Z"/><path class="cls-2" d="M391.8,108.84a8.84,8.84,0,0,1,7.94-4.76,8.46,8.46,0,0,1,4,.9,8.14,8.14,0,0,1,2.73,2.24V104.4h4.06v19.41h-4.06v-2.89a7.94,7.94,0,0,1-2.78,2.29,9,9,0,0,1-8.6-.37,9.08,9.08,0,0,1-3.29-3.59,11.05,11.05,0,0,1-1.21-5.23A10.74,10.74,0,0,1,391.8,108.84Zm13.85,1.76a5.81,5.81,0,0,0-2.17-2.25,5.65,5.65,0,0,0-2.89-.78,5.71,5.71,0,0,0-5.06,3,6.93,6.93,0,0,0-.82,3.47,7.23,7.23,0,0,0,.82,3.52,5.89,5.89,0,0,0,2.19,2.31,5.57,5.57,0,0,0,2.87.79,5.74,5.74,0,0,0,2.89-.77,5.9,5.9,0,0,0,2.17-2.28,7.86,7.86,0,0,0,0-7Z"/><path class="cls-2" d="M416.9,101.09a2.65,2.65,0,0,1,0-3.67,2.49,2.49,0,0,1,1.83-.74,2.45,2.45,0,0,1,1.8.74,2.65,2.65,0,0,1,0,3.67,2.45,2.45,0,0,1-1.8.74A2.49,2.49,0,0,1,416.9,101.09Zm3.81,3.31v19.41h-4V104.4Z"/><path class="cls-2" d="M440.77,105a6.89,6.89,0,0,1,2.84,2.82,9.3,9.3,0,0,1,1,4.51v11.45h-4V113a5.64,5.64,0,0,0-1.31-4,4.63,4.63,0,0,0-3.56-1.39,4.68,4.68,0,0,0-3.57,1.39,5.59,5.59,0,0,0-1.32,4v10.85h-4V104.4h4v2.22a6.56,6.56,0,0,1,2.52-1.87,8.11,8.11,0,0,1,3.25-.67A8.77,8.77,0,0,1,440.77,105Z"/><path class="cls-2" d="M479.57,123.81l-3-3a11.77,11.77,0,0,1-3.84,2.63,12.08,12.08,0,0,1-4.65.86,11,11,0,0,1-4.61-.92,7,7,0,0,1-3.1-2.62,7.18,7.18,0,0,1-1.09-4,7.53,7.53,0,0,1,1.44-4.53,9.65,9.65,0,0,1,4.3-3.16,9.07,9.07,0,0,1-1.45-2.3,6.5,6.5,0,0,1-.42-2.38,5.2,5.2,0,0,1,.83-2.89,5.72,5.72,0,0,1,2.38-2,8.28,8.28,0,0,1,3.59-.74,7.29,7.29,0,0,1,3.54.8,5.19,5.19,0,0,1,2.19,2.16,5.54,5.54,0,0,1,.58,3.07h-4a2.8,2.8,0,0,0-.63-2,2.39,2.39,0,0,0-1.83-.72,2.62,2.62,0,0,0-1.89.69,2.2,2.2,0,0,0-.72,1.67,3.78,3.78,0,0,0,.54,1.89,16.16,16.16,0,0,0,1.92,2.41l6.49,6.44,2.5-4.12h4.33l-3.17,5.43-.88,1.44,5.95,5.92Zm-5.67-5.67-6.48-6.52c-2.77,1.11-4.16,2.77-4.16,5a3.93,3.93,0,0,0,1.34,3,4.94,4.94,0,0,0,3.45,1.21A7.79,7.79,0,0,0,473.9,118.14Z"/><path class="cls-2" d="M512.8,99.33v3.27H502.4v7.22h8.1v3.28h-8.1v10.71h-4V99.33Z"/><path class="cls-2" d="M517.62,101.09a2.65,2.65,0,0,1,0-3.67,2.49,2.49,0,0,1,1.83-.74,2.45,2.45,0,0,1,1.8.74,2.65,2.65,0,0,1,0,3.67,2.45,2.45,0,0,1-1.8.74A2.49,2.49,0,0,1,517.62,101.09Zm3.81,3.31v19.41h-4V104.4Z"/><path class="cls-2" d="M541.49,105a6.89,6.89,0,0,1,2.84,2.82,9.3,9.3,0,0,1,1,4.51v11.45h-4V113a5.64,5.64,0,0,0-1.31-4,4.63,4.63,0,0,0-3.56-1.39,4.68,4.68,0,0,0-3.57,1.39,5.59,5.59,0,0,0-1.32,4v10.85h-4V104.4h4v2.22a6.56,6.56,0,0,1,2.52-1.87,8.11,8.11,0,0,1,3.25-.67A8.77,8.77,0,0,1,541.49,105Z"/><path class="cls-2" d="M556,107.68v10.74a2.07,2.07,0,0,0,.51,1.57,2.53,2.53,0,0,0,1.75.47h2.46v3.35h-3.17a6.11,6.11,0,0,1-4.16-1.27,5.23,5.23,0,0,1-1.44-4.12V107.68h-2.29V104.4H552V99.57h4v4.83h4.72v3.28Z"/><path class="cls-2" d="M583,115.6H568.14a5.36,5.36,0,0,0,5.53,5.15,4.7,4.7,0,0,0,4.58-2.72h4.33a8.73,8.73,0,0,1-3.18,4.39,9.36,9.36,0,0,1-5.73,1.71,9.9,9.9,0,0,1-5-1.25,9,9,0,0,1-3.46-3.53,10.77,10.77,0,0,1-1.25-5.26,11,11,0,0,1,1.22-5.27,8.58,8.58,0,0,1,3.41-3.5,10.12,10.12,0,0,1,5.06-1.24,9.91,9.91,0,0,1,4.9,1.2,8.44,8.44,0,0,1,3.34,3.36,10.15,10.15,0,0,1,1.2,5A12.93,12.93,0,0,1,583,115.6Zm-4.05-3.24a4.56,4.56,0,0,0-1.59-3.56,5.66,5.66,0,0,0-3.84-1.33,5.09,5.09,0,0,0-3.55,1.32,5.51,5.51,0,0,0-1.77,3.57Z"/><path class="cls-2" d="M587.81,108.82a8.74,8.74,0,0,1,3.37-3.5,10.71,10.71,0,0,1,10.76.44,8.2,8.2,0,0,1,3.12,4.77h-4.33a4.73,4.73,0,0,0-1.69-2.26,5.08,5.08,0,0,0-2.93-.8,4.88,4.88,0,0,0-3.93,1.74,8.9,8.9,0,0,0,0,9.77,4.85,4.85,0,0,0,3.93,1.77,4.47,4.47,0,0,0,4.62-3.07h4.33a8.71,8.71,0,0,1-3.17,4.71,9.38,9.38,0,0,1-5.78,1.74,9.66,9.66,0,0,1-4.93-1.25,8.89,8.89,0,0,1-3.37-3.53,12.06,12.06,0,0,1,0-10.53Z"/><path class="cls-2" d="M624,105a6.86,6.86,0,0,1,2.75,2.82,9.42,9.42,0,0,1,1,4.51v11.45h-4V113a5.63,5.63,0,0,0-1.3-4,4.64,4.64,0,0,0-3.56-1.39,4.72,4.72,0,0,0-3.58,1.39,5.59,5.59,0,0,0-1.32,4v10.85h-4V97.74h4v8.91a6.82,6.82,0,0,1,2.59-1.9,8.79,8.79,0,0,1,3.44-.67A8.17,8.17,0,0,1,624,105Z"/><path class="cls-2" d="M643.62,108.82a8.65,8.65,0,0,1,3.36-3.5,10.71,10.71,0,0,1,10.76.44,8.2,8.2,0,0,1,3.12,4.77h-4.33a4.67,4.67,0,0,0-1.69-2.26,5.08,5.08,0,0,0-2.93-.8,4.85,4.85,0,0,0-3.92,1.74,8.85,8.85,0,0,0,0,9.77,4.82,4.82,0,0,0,3.92,1.77,4.47,4.47,0,0,0,4.62-3.07h4.33a8.71,8.71,0,0,1-3.17,4.71,9.36,9.36,0,0,1-5.78,1.74,9.66,9.66,0,0,1-4.93-1.25,8.8,8.8,0,0,1-3.36-3.53,12,12,0,0,1,0-10.53Z"/><path class="cls-2" d="M679.76,105a6.8,6.8,0,0,1,2.75,2.82,9.42,9.42,0,0,1,1,4.51v11.45h-4V113a5.63,5.63,0,0,0-1.3-4,4.63,4.63,0,0,0-3.56-1.39A4.68,4.68,0,0,0,671.1,109a5.59,5.59,0,0,0-1.32,4v10.85h-4V97.74h4v8.91a6.74,6.74,0,0,1,2.59-1.9,8.71,8.71,0,0,1,3.43-.67A8.17,8.17,0,0,1,679.76,105Z"/><path class="cls-2" d="M689.38,108.84a8.84,8.84,0,0,1,7.94-4.76,8.46,8.46,0,0,1,4,.9,8.14,8.14,0,0,1,2.73,2.24V104.4h4.06v19.41h-4.06v-2.89a7.94,7.94,0,0,1-2.78,2.29,9,9,0,0,1-8.6-.37,9.08,9.08,0,0,1-3.29-3.59,11.05,11.05,0,0,1-1.21-5.23A10.74,10.74,0,0,1,689.38,108.84Zm13.85,1.76a5.81,5.81,0,0,0-2.17-2.25,5.65,5.65,0,0,0-2.89-.78,5.71,5.71,0,0,0-5.06,3,6.93,6.93,0,0,0-.82,3.47,7.23,7.23,0,0,0,.82,3.52,5.89,5.89,0,0,0,2.19,2.31,5.57,5.57,0,0,0,2.87.79,5.74,5.74,0,0,0,2.89-.77,5.9,5.9,0,0,0,2.17-2.28,7.86,7.86,0,0,0,0-7Z"/><path class="cls-2" d="M728.17,105a6.81,6.81,0,0,1,2.83,2.82,9.3,9.3,0,0,1,1,4.51v11.45h-4V113a5.63,5.63,0,0,0-1.3-4,4.63,4.63,0,0,0-3.56-1.39,4.68,4.68,0,0,0-3.57,1.39,5.59,5.59,0,0,0-1.32,4v10.85h-4V104.4h4v2.22a6.6,6.6,0,0,1,2.51-1.87,8.2,8.2,0,0,1,3.26-.67A8.77,8.77,0,0,1,728.17,105Z"/><path class="cls-2" d="M751.91,105a6.83,6.83,0,0,1,2.84,2.82,9.3,9.3,0,0,1,1,4.51v11.45h-4V113a5.68,5.68,0,0,0-1.3-4,5.28,5.28,0,0,0-7.14,0,5.59,5.59,0,0,0-1.32,4v10.85h-4V104.4h4v2.22a6.71,6.71,0,0,1,2.52-1.87,8.16,8.16,0,0,1,3.26-.67A8.76,8.76,0,0,1,751.91,105Z"/><path class="cls-2" d="M779.41,115.6H764.58a5.38,5.38,0,0,0,1.72,3.74,5.46,5.46,0,0,0,3.81,1.41,4.71,4.71,0,0,0,4.58-2.72H779a8.75,8.75,0,0,1-3.19,4.39,9.33,9.33,0,0,1-5.72,1.71,10,10,0,0,1-5-1.25,8.88,8.88,0,0,1-3.45-3.53,10.77,10.77,0,0,1-1.25-5.26,10.91,10.91,0,0,1,1.22-5.27,8.52,8.52,0,0,1,3.41-3.5,10.12,10.12,0,0,1,5.06-1.24,9.91,9.91,0,0,1,4.9,1.2,8.5,8.5,0,0,1,3.34,3.36,10.15,10.15,0,0,1,1.2,5A12.93,12.93,0,0,1,779.41,115.6Zm-4-3.24a4.62,4.62,0,0,0-1.59-3.56,5.66,5.66,0,0,0-3.84-1.33,5.13,5.13,0,0,0-3.56,1.32,5.55,5.55,0,0,0-1.76,3.57Z"/><path class="cls-2" d="M788.39,97.74v26.07h-4V97.74Z"/><path class="cls-2" d="M798.33,119.16v4.65h-4.55v-4.65Z"/></g></g></svg>